%TF.GenerationSoftware,KiCad,Pcbnew,5.1.6-c6e7f7d~87~ubuntu18.04.1*%
%TF.CreationDate,2020-07-29T18:50:04-04:00*%
%TF.ProjectId,front_panel,66726f6e-745f-4706-916e-656c2e6b6963,rev?*%
%TF.SameCoordinates,Original*%
%TF.FileFunction,Legend,Top*%
%TF.FilePolarity,Positive*%
%FSLAX46Y46*%
G04 Gerber Fmt 4.6, Leading zero omitted, Abs format (unit mm)*
G04 Created by KiCad (PCBNEW 5.1.6-c6e7f7d~87~ubuntu18.04.1) date 2020-07-29 18:50:04*
%MOMM*%
%LPD*%
G01*
G04 APERTURE LIST*
%ADD10C,0.300000*%
G04 APERTURE END LIST*
D10*
X8178571Y-10247142D02*
X8178571Y-7247142D01*
X8892857Y-7247142D01*
X9321428Y-7390000D01*
X9607142Y-7675714D01*
X9749999Y-7961428D01*
X9892857Y-8532857D01*
X9892857Y-8961428D01*
X9749999Y-9532857D01*
X9607142Y-9818571D01*
X9321428Y-10104285D01*
X8892857Y-10247142D01*
X8178571Y-10247142D01*
X12464285Y-8247142D02*
X12464285Y-10247142D01*
X11178571Y-8247142D02*
X11178571Y-9818571D01*
X11321428Y-10104285D01*
X11607142Y-10247142D01*
X12035714Y-10247142D01*
X12321428Y-10104285D01*
X12464285Y-9961428D01*
X15178571Y-10247142D02*
X15178571Y-8675714D01*
X15035714Y-8390000D01*
X14749999Y-8247142D01*
X14178571Y-8247142D01*
X13892857Y-8390000D01*
X15178571Y-10104285D02*
X14892857Y-10247142D01*
X14178571Y-10247142D01*
X13892857Y-10104285D01*
X13749999Y-9818571D01*
X13749999Y-9532857D01*
X13892857Y-9247142D01*
X14178571Y-9104285D01*
X14892857Y-9104285D01*
X15178571Y-8961428D01*
X17035714Y-10247142D02*
X16749999Y-10104285D01*
X16607142Y-9818571D01*
X16607142Y-7247142D01*
X20892857Y-10247142D02*
X20607142Y-10104285D01*
X20464285Y-9818571D01*
X20464285Y-7247142D01*
X22035714Y-10247142D02*
X22035714Y-8247142D01*
X22035714Y-7247142D02*
X21892857Y-7390000D01*
X22035714Y-7532857D01*
X22178571Y-7390000D01*
X22035714Y-7247142D01*
X22035714Y-7532857D01*
X23464285Y-8247142D02*
X23464285Y-10247142D01*
X23464285Y-8532857D02*
X23607142Y-8390000D01*
X23892857Y-8247142D01*
X24321428Y-8247142D01*
X24607142Y-8390000D01*
X24749999Y-8675714D01*
X24749999Y-10247142D01*
X27321428Y-10104285D02*
X27035714Y-10247142D01*
X26464285Y-10247142D01*
X26178571Y-10104285D01*
X26035714Y-9818571D01*
X26035714Y-8675714D01*
X26178571Y-8390000D01*
X26464285Y-8247142D01*
X27035714Y-8247142D01*
X27321428Y-8390000D01*
X27464285Y-8675714D01*
X27464285Y-8961428D01*
X26035714Y-9247142D01*
X30035714Y-10247142D02*
X30035714Y-8675714D01*
X29892857Y-8390000D01*
X29607142Y-8247142D01*
X29035714Y-8247142D01*
X28749999Y-8390000D01*
X30035714Y-10104285D02*
X29749999Y-10247142D01*
X29035714Y-10247142D01*
X28749999Y-10104285D01*
X28607142Y-9818571D01*
X28607142Y-9532857D01*
X28749999Y-9247142D01*
X29035714Y-9104285D01*
X29749999Y-9104285D01*
X30035714Y-8961428D01*
X31464285Y-10247142D02*
X31464285Y-8247142D01*
X31464285Y-8818571D02*
X31607142Y-8532857D01*
X31749999Y-8390000D01*
X32035714Y-8247142D01*
X32321428Y-8247142D01*
X35178571Y-7247142D02*
X36178571Y-10247142D01*
X37178571Y-7247142D01*
X39892857Y-9961428D02*
X39750000Y-10104285D01*
X39321428Y-10247142D01*
X39035714Y-10247142D01*
X38607142Y-10104285D01*
X38321428Y-9818571D01*
X38178571Y-9532857D01*
X38035714Y-8961428D01*
X38035714Y-8532857D01*
X38178571Y-7961428D01*
X38321428Y-7675714D01*
X38607142Y-7390000D01*
X39035714Y-7247142D01*
X39321428Y-7247142D01*
X39750000Y-7390000D01*
X39892857Y-7532857D01*
X41035714Y-9390000D02*
X42464285Y-9390000D01*
X40750000Y-10247142D02*
X41750000Y-7247142D01*
X42750000Y-10247142D01*
X31501904Y-110891904D02*
X31740000Y-111010952D01*
X32216190Y-111010952D01*
X32454285Y-110891904D01*
X32573333Y-110653809D01*
X32573333Y-110534761D01*
X32454285Y-110296666D01*
X32216190Y-110177619D01*
X31859047Y-110177619D01*
X31620952Y-110058571D01*
X31501904Y-109820476D01*
X31501904Y-109701428D01*
X31620952Y-109463333D01*
X31859047Y-109344285D01*
X32216190Y-109344285D01*
X32454285Y-109463333D01*
X33644761Y-111010952D02*
X33644761Y-109344285D01*
X33644761Y-108510952D02*
X33525714Y-108630000D01*
X33644761Y-108749047D01*
X33763809Y-108630000D01*
X33644761Y-108510952D01*
X33644761Y-108749047D01*
X35906666Y-109344285D02*
X35906666Y-111368095D01*
X35787619Y-111606190D01*
X35668571Y-111725238D01*
X35430476Y-111844285D01*
X35073333Y-111844285D01*
X34835238Y-111725238D01*
X35906666Y-110891904D02*
X35668571Y-111010952D01*
X35192380Y-111010952D01*
X34954285Y-110891904D01*
X34835238Y-110772857D01*
X34716190Y-110534761D01*
X34716190Y-109820476D01*
X34835238Y-109582380D01*
X34954285Y-109463333D01*
X35192380Y-109344285D01*
X35668571Y-109344285D01*
X35906666Y-109463333D01*
X37097142Y-110772857D02*
X37216190Y-110891904D01*
X37097142Y-111010952D01*
X36978095Y-110891904D01*
X37097142Y-110772857D01*
X37097142Y-111010952D01*
X40549523Y-111010952D02*
X40311428Y-110891904D01*
X40192380Y-110772857D01*
X40073333Y-110534761D01*
X40073333Y-109820476D01*
X40192380Y-109582380D01*
X40311428Y-109463333D01*
X40549523Y-109344285D01*
X40906666Y-109344285D01*
X41144761Y-109463333D01*
X41263809Y-109582380D01*
X41382857Y-109820476D01*
X41382857Y-110534761D01*
X41263809Y-110772857D01*
X41144761Y-110891904D01*
X40906666Y-111010952D01*
X40549523Y-111010952D01*
X43525714Y-109344285D02*
X43525714Y-111010952D01*
X42454285Y-109344285D02*
X42454285Y-110653809D01*
X42573333Y-110891904D01*
X42811428Y-111010952D01*
X43168571Y-111010952D01*
X43406666Y-110891904D01*
X43525714Y-110772857D01*
X44359047Y-109344285D02*
X45311428Y-109344285D01*
X44716190Y-108510952D02*
X44716190Y-110653809D01*
X44835238Y-110891904D01*
X45073333Y-111010952D01*
X45311428Y-111010952D01*
X48882857Y-109701428D02*
X49240000Y-109820476D01*
X49359047Y-109939523D01*
X49478095Y-110177619D01*
X49478095Y-110534761D01*
X49359047Y-110772857D01*
X49240000Y-110891904D01*
X49001904Y-111010952D01*
X48049523Y-111010952D01*
X48049523Y-108510952D01*
X48882857Y-108510952D01*
X49120952Y-108630000D01*
X49240000Y-108749047D01*
X49359047Y-108987142D01*
X49359047Y-109225238D01*
X49240000Y-109463333D01*
X49120952Y-109582380D01*
X48882857Y-109701428D01*
X48049523Y-109701428D01*
X35311428Y-98072857D02*
X35192380Y-98191904D01*
X34835238Y-98310952D01*
X34597142Y-98310952D01*
X34240000Y-98191904D01*
X34001904Y-97953809D01*
X33882857Y-97715714D01*
X33763809Y-97239523D01*
X33763809Y-96882380D01*
X33882857Y-96406190D01*
X34001904Y-96168095D01*
X34240000Y-95930000D01*
X34597142Y-95810952D01*
X34835238Y-95810952D01*
X35192380Y-95930000D01*
X35311428Y-96049047D01*
X36025714Y-95810952D02*
X36859047Y-98310952D01*
X37692380Y-95810952D01*
X40430476Y-98310952D02*
X40430476Y-96644285D01*
X40430476Y-95810952D02*
X40311428Y-95930000D01*
X40430476Y-96049047D01*
X40549523Y-95930000D01*
X40430476Y-95810952D01*
X40430476Y-96049047D01*
X41620952Y-96644285D02*
X41620952Y-98310952D01*
X41620952Y-96882380D02*
X41740000Y-96763333D01*
X41978095Y-96644285D01*
X42335238Y-96644285D01*
X42573333Y-96763333D01*
X42692380Y-97001428D01*
X42692380Y-98310952D01*
X46620952Y-97001428D02*
X46978095Y-97120476D01*
X47097142Y-97239523D01*
X47216190Y-97477619D01*
X47216190Y-97834761D01*
X47097142Y-98072857D01*
X46978095Y-98191904D01*
X46740000Y-98310952D01*
X45787619Y-98310952D01*
X45787619Y-95810952D01*
X46620952Y-95810952D01*
X46859047Y-95930000D01*
X46978095Y-96049047D01*
X47097142Y-96287142D01*
X47097142Y-96525238D01*
X46978095Y-96763333D01*
X46859047Y-96882380D01*
X46620952Y-97001428D01*
X45787619Y-97001428D01*
X32751904Y-85491904D02*
X32990000Y-85610952D01*
X33466190Y-85610952D01*
X33704285Y-85491904D01*
X33823333Y-85253809D01*
X33823333Y-85134761D01*
X33704285Y-84896666D01*
X33466190Y-84777619D01*
X33109047Y-84777619D01*
X32870952Y-84658571D01*
X32751904Y-84420476D01*
X32751904Y-84301428D01*
X32870952Y-84063333D01*
X33109047Y-83944285D01*
X33466190Y-83944285D01*
X33704285Y-84063333D01*
X34894761Y-85610952D02*
X34894761Y-83944285D01*
X34894761Y-83110952D02*
X34775714Y-83230000D01*
X34894761Y-83349047D01*
X35013809Y-83230000D01*
X34894761Y-83110952D01*
X34894761Y-83349047D01*
X37156666Y-83944285D02*
X37156666Y-85968095D01*
X37037619Y-86206190D01*
X36918571Y-86325238D01*
X36680476Y-86444285D01*
X36323333Y-86444285D01*
X36085238Y-86325238D01*
X37156666Y-85491904D02*
X36918571Y-85610952D01*
X36442380Y-85610952D01*
X36204285Y-85491904D01*
X36085238Y-85372857D01*
X35966190Y-85134761D01*
X35966190Y-84420476D01*
X36085238Y-84182380D01*
X36204285Y-84063333D01*
X36442380Y-83944285D01*
X36918571Y-83944285D01*
X37156666Y-84063333D01*
X38347142Y-85372857D02*
X38466190Y-85491904D01*
X38347142Y-85610952D01*
X38228095Y-85491904D01*
X38347142Y-85372857D01*
X38347142Y-85610952D01*
X41442380Y-85610952D02*
X41442380Y-83944285D01*
X41442380Y-83110952D02*
X41323333Y-83230000D01*
X41442380Y-83349047D01*
X41561428Y-83230000D01*
X41442380Y-83110952D01*
X41442380Y-83349047D01*
X42632857Y-83944285D02*
X42632857Y-85610952D01*
X42632857Y-84182380D02*
X42751904Y-84063333D01*
X42990000Y-83944285D01*
X43347142Y-83944285D01*
X43585238Y-84063333D01*
X43704285Y-84301428D01*
X43704285Y-85610952D01*
X47632857Y-84301428D02*
X47990000Y-84420476D01*
X48109047Y-84539523D01*
X48228095Y-84777619D01*
X48228095Y-85134761D01*
X48109047Y-85372857D01*
X47990000Y-85491904D01*
X47751904Y-85610952D01*
X46799523Y-85610952D01*
X46799523Y-83110952D01*
X47632857Y-83110952D01*
X47870952Y-83230000D01*
X47990000Y-83349047D01*
X48109047Y-83587142D01*
X48109047Y-83825238D01*
X47990000Y-84063333D01*
X47870952Y-84182380D01*
X47632857Y-84301428D01*
X46799523Y-84301428D01*
X1290476Y-110891904D02*
X1528571Y-111010952D01*
X2004761Y-111010952D01*
X2242857Y-110891904D01*
X2361904Y-110653809D01*
X2361904Y-110534761D01*
X2242857Y-110296666D01*
X2004761Y-110177619D01*
X1647619Y-110177619D01*
X1409523Y-110058571D01*
X1290476Y-109820476D01*
X1290476Y-109701428D01*
X1409523Y-109463333D01*
X1647619Y-109344285D01*
X2004761Y-109344285D01*
X2242857Y-109463333D01*
X3433333Y-111010952D02*
X3433333Y-109344285D01*
X3433333Y-108510952D02*
X3314285Y-108630000D01*
X3433333Y-108749047D01*
X3552380Y-108630000D01*
X3433333Y-108510952D01*
X3433333Y-108749047D01*
X5695238Y-109344285D02*
X5695238Y-111368095D01*
X5576190Y-111606190D01*
X5457142Y-111725238D01*
X5219047Y-111844285D01*
X4861904Y-111844285D01*
X4623809Y-111725238D01*
X5695238Y-110891904D02*
X5457142Y-111010952D01*
X4980952Y-111010952D01*
X4742857Y-110891904D01*
X4623809Y-110772857D01*
X4504761Y-110534761D01*
X4504761Y-109820476D01*
X4623809Y-109582380D01*
X4742857Y-109463333D01*
X4980952Y-109344285D01*
X5457142Y-109344285D01*
X5695238Y-109463333D01*
X6885714Y-110772857D02*
X7004761Y-110891904D01*
X6885714Y-111010952D01*
X6766666Y-110891904D01*
X6885714Y-110772857D01*
X6885714Y-111010952D01*
X10338095Y-111010952D02*
X10100000Y-110891904D01*
X9980952Y-110772857D01*
X9861904Y-110534761D01*
X9861904Y-109820476D01*
X9980952Y-109582380D01*
X10100000Y-109463333D01*
X10338095Y-109344285D01*
X10695238Y-109344285D01*
X10933333Y-109463333D01*
X11052380Y-109582380D01*
X11171428Y-109820476D01*
X11171428Y-110534761D01*
X11052380Y-110772857D01*
X10933333Y-110891904D01*
X10695238Y-111010952D01*
X10338095Y-111010952D01*
X13314285Y-109344285D02*
X13314285Y-111010952D01*
X12242857Y-109344285D02*
X12242857Y-110653809D01*
X12361904Y-110891904D01*
X12600000Y-111010952D01*
X12957142Y-111010952D01*
X13195238Y-110891904D01*
X13314285Y-110772857D01*
X14147619Y-109344285D02*
X15100000Y-109344285D01*
X14504761Y-108510952D02*
X14504761Y-110653809D01*
X14623809Y-110891904D01*
X14861904Y-111010952D01*
X15100000Y-111010952D01*
X17719047Y-110296666D02*
X18909523Y-110296666D01*
X17480952Y-111010952D02*
X18314285Y-108510952D01*
X19147619Y-111010952D01*
X5100000Y-98072857D02*
X4980952Y-98191904D01*
X4623809Y-98310952D01*
X4385714Y-98310952D01*
X4028571Y-98191904D01*
X3790476Y-97953809D01*
X3671428Y-97715714D01*
X3552380Y-97239523D01*
X3552380Y-96882380D01*
X3671428Y-96406190D01*
X3790476Y-96168095D01*
X4028571Y-95930000D01*
X4385714Y-95810952D01*
X4623809Y-95810952D01*
X4980952Y-95930000D01*
X5100000Y-96049047D01*
X5814285Y-95810952D02*
X6647619Y-98310952D01*
X7480952Y-95810952D01*
X10219047Y-98310952D02*
X10219047Y-96644285D01*
X10219047Y-95810952D02*
X10100000Y-95930000D01*
X10219047Y-96049047D01*
X10338095Y-95930000D01*
X10219047Y-95810952D01*
X10219047Y-96049047D01*
X11409523Y-96644285D02*
X11409523Y-98310952D01*
X11409523Y-96882380D02*
X11528571Y-96763333D01*
X11766666Y-96644285D01*
X12123809Y-96644285D01*
X12361904Y-96763333D01*
X12480952Y-97001428D01*
X12480952Y-98310952D01*
X15457142Y-97596666D02*
X16647619Y-97596666D01*
X15219047Y-98310952D02*
X16052380Y-95810952D01*
X16885714Y-98310952D01*
X2540476Y-85491904D02*
X2778571Y-85610952D01*
X3254761Y-85610952D01*
X3492857Y-85491904D01*
X3611904Y-85253809D01*
X3611904Y-85134761D01*
X3492857Y-84896666D01*
X3254761Y-84777619D01*
X2897619Y-84777619D01*
X2659523Y-84658571D01*
X2540476Y-84420476D01*
X2540476Y-84301428D01*
X2659523Y-84063333D01*
X2897619Y-83944285D01*
X3254761Y-83944285D01*
X3492857Y-84063333D01*
X4683333Y-85610952D02*
X4683333Y-83944285D01*
X4683333Y-83110952D02*
X4564285Y-83230000D01*
X4683333Y-83349047D01*
X4802380Y-83230000D01*
X4683333Y-83110952D01*
X4683333Y-83349047D01*
X6945238Y-83944285D02*
X6945238Y-85968095D01*
X6826190Y-86206190D01*
X6707142Y-86325238D01*
X6469047Y-86444285D01*
X6111904Y-86444285D01*
X5873809Y-86325238D01*
X6945238Y-85491904D02*
X6707142Y-85610952D01*
X6230952Y-85610952D01*
X5992857Y-85491904D01*
X5873809Y-85372857D01*
X5754761Y-85134761D01*
X5754761Y-84420476D01*
X5873809Y-84182380D01*
X5992857Y-84063333D01*
X6230952Y-83944285D01*
X6707142Y-83944285D01*
X6945238Y-84063333D01*
X8135714Y-85372857D02*
X8254761Y-85491904D01*
X8135714Y-85610952D01*
X8016666Y-85491904D01*
X8135714Y-85372857D01*
X8135714Y-85610952D01*
X11230952Y-85610952D02*
X11230952Y-83944285D01*
X11230952Y-83110952D02*
X11111904Y-83230000D01*
X11230952Y-83349047D01*
X11350000Y-83230000D01*
X11230952Y-83110952D01*
X11230952Y-83349047D01*
X12421428Y-83944285D02*
X12421428Y-85610952D01*
X12421428Y-84182380D02*
X12540476Y-84063333D01*
X12778571Y-83944285D01*
X13135714Y-83944285D01*
X13373809Y-84063333D01*
X13492857Y-84301428D01*
X13492857Y-85610952D01*
X16469047Y-84896666D02*
X17659523Y-84896666D01*
X16230952Y-85610952D02*
X17064285Y-83110952D01*
X17897619Y-85610952D01*
X33763809Y-63332857D02*
X33644761Y-63451904D01*
X33287619Y-63570952D01*
X33049523Y-63570952D01*
X32692380Y-63451904D01*
X32454285Y-63213809D01*
X32335238Y-62975714D01*
X32216190Y-62499523D01*
X32216190Y-62142380D01*
X32335238Y-61666190D01*
X32454285Y-61428095D01*
X32692380Y-61190000D01*
X33049523Y-61070952D01*
X33287619Y-61070952D01*
X33644761Y-61190000D01*
X33763809Y-61309047D01*
X34478095Y-61070952D02*
X35311428Y-63570952D01*
X36144761Y-61070952D01*
X39240000Y-63570952D02*
X39001904Y-63451904D01*
X38882857Y-63213809D01*
X38882857Y-61070952D01*
X41144761Y-63451904D02*
X40906666Y-63570952D01*
X40430476Y-63570952D01*
X40192380Y-63451904D01*
X40073333Y-63213809D01*
X40073333Y-62261428D01*
X40192380Y-62023333D01*
X40430476Y-61904285D01*
X40906666Y-61904285D01*
X41144761Y-62023333D01*
X41263809Y-62261428D01*
X41263809Y-62499523D01*
X40073333Y-62737619D01*
X42097142Y-61904285D02*
X42692380Y-63570952D01*
X43287619Y-61904285D01*
X44240000Y-63332857D02*
X44359047Y-63451904D01*
X44240000Y-63570952D01*
X44120952Y-63451904D01*
X44240000Y-63332857D01*
X44240000Y-63570952D01*
X48168571Y-62261428D02*
X48525714Y-62380476D01*
X48644761Y-62499523D01*
X48763809Y-62737619D01*
X48763809Y-63094761D01*
X48644761Y-63332857D01*
X48525714Y-63451904D01*
X48287619Y-63570952D01*
X47335238Y-63570952D01*
X47335238Y-61070952D01*
X48168571Y-61070952D01*
X48406666Y-61190000D01*
X48525714Y-61309047D01*
X48644761Y-61547142D01*
X48644761Y-61785238D01*
X48525714Y-62023333D01*
X48406666Y-62142380D01*
X48168571Y-62261428D01*
X47335238Y-62261428D01*
X35013809Y-35630952D02*
X35013809Y-33130952D01*
X35013809Y-34083333D02*
X35251904Y-33964285D01*
X35728095Y-33964285D01*
X35966190Y-34083333D01*
X36085238Y-34202380D01*
X36204285Y-34440476D01*
X36204285Y-35154761D01*
X36085238Y-35392857D01*
X35966190Y-35511904D01*
X35728095Y-35630952D01*
X35251904Y-35630952D01*
X35013809Y-35511904D01*
X37275714Y-35630952D02*
X37275714Y-33964285D01*
X37275714Y-33130952D02*
X37156666Y-33250000D01*
X37275714Y-33369047D01*
X37394761Y-33250000D01*
X37275714Y-33130952D01*
X37275714Y-33369047D01*
X39537619Y-35630952D02*
X39537619Y-34321428D01*
X39418571Y-34083333D01*
X39180476Y-33964285D01*
X38704285Y-33964285D01*
X38466190Y-34083333D01*
X39537619Y-35511904D02*
X39299523Y-35630952D01*
X38704285Y-35630952D01*
X38466190Y-35511904D01*
X38347142Y-35273809D01*
X38347142Y-35035714D01*
X38466190Y-34797619D01*
X38704285Y-34678571D01*
X39299523Y-34678571D01*
X39537619Y-34559523D01*
X40609047Y-35511904D02*
X40847142Y-35630952D01*
X41323333Y-35630952D01*
X41561428Y-35511904D01*
X41680476Y-35273809D01*
X41680476Y-35154761D01*
X41561428Y-34916666D01*
X41323333Y-34797619D01*
X40966190Y-34797619D01*
X40728095Y-34678571D01*
X40609047Y-34440476D01*
X40609047Y-34321428D01*
X40728095Y-34083333D01*
X40966190Y-33964285D01*
X41323333Y-33964285D01*
X41561428Y-34083333D01*
X45490000Y-34321428D02*
X45847142Y-34440476D01*
X45966190Y-34559523D01*
X46085238Y-34797619D01*
X46085238Y-35154761D01*
X45966190Y-35392857D01*
X45847142Y-35511904D01*
X45609047Y-35630952D01*
X44656666Y-35630952D01*
X44656666Y-33130952D01*
X45490000Y-33130952D01*
X45728095Y-33250000D01*
X45847142Y-33369047D01*
X45966190Y-33607142D01*
X45966190Y-33845238D01*
X45847142Y-34083333D01*
X45728095Y-34202380D01*
X45490000Y-34321428D01*
X44656666Y-34321428D01*
X3612380Y-63332857D02*
X3493333Y-63451904D01*
X3136190Y-63570952D01*
X2898095Y-63570952D01*
X2540952Y-63451904D01*
X2302857Y-63213809D01*
X2183809Y-62975714D01*
X2064761Y-62499523D01*
X2064761Y-62142380D01*
X2183809Y-61666190D01*
X2302857Y-61428095D01*
X2540952Y-61190000D01*
X2898095Y-61070952D01*
X3136190Y-61070952D01*
X3493333Y-61190000D01*
X3612380Y-61309047D01*
X4326666Y-61070952D02*
X5160000Y-63570952D01*
X5993333Y-61070952D01*
X9088571Y-63570952D02*
X8850476Y-63451904D01*
X8731428Y-63213809D01*
X8731428Y-61070952D01*
X10993333Y-63451904D02*
X10755238Y-63570952D01*
X10279047Y-63570952D01*
X10040952Y-63451904D01*
X9921904Y-63213809D01*
X9921904Y-62261428D01*
X10040952Y-62023333D01*
X10279047Y-61904285D01*
X10755238Y-61904285D01*
X10993333Y-62023333D01*
X11112380Y-62261428D01*
X11112380Y-62499523D01*
X9921904Y-62737619D01*
X11945714Y-61904285D02*
X12540952Y-63570952D01*
X13136190Y-61904285D01*
X14088571Y-63332857D02*
X14207619Y-63451904D01*
X14088571Y-63570952D01*
X13969523Y-63451904D01*
X14088571Y-63332857D01*
X14088571Y-63570952D01*
X17064761Y-62856666D02*
X18255238Y-62856666D01*
X16826666Y-63570952D02*
X17660000Y-61070952D01*
X18493333Y-63570952D01*
X4802380Y-35630952D02*
X4802380Y-33130952D01*
X4802380Y-34083333D02*
X5040476Y-33964285D01*
X5516666Y-33964285D01*
X5754761Y-34083333D01*
X5873809Y-34202380D01*
X5992857Y-34440476D01*
X5992857Y-35154761D01*
X5873809Y-35392857D01*
X5754761Y-35511904D01*
X5516666Y-35630952D01*
X5040476Y-35630952D01*
X4802380Y-35511904D01*
X7064285Y-35630952D02*
X7064285Y-33964285D01*
X7064285Y-33130952D02*
X6945238Y-33250000D01*
X7064285Y-33369047D01*
X7183333Y-33250000D01*
X7064285Y-33130952D01*
X7064285Y-33369047D01*
X9326190Y-35630952D02*
X9326190Y-34321428D01*
X9207142Y-34083333D01*
X8969047Y-33964285D01*
X8492857Y-33964285D01*
X8254761Y-34083333D01*
X9326190Y-35511904D02*
X9088095Y-35630952D01*
X8492857Y-35630952D01*
X8254761Y-35511904D01*
X8135714Y-35273809D01*
X8135714Y-35035714D01*
X8254761Y-34797619D01*
X8492857Y-34678571D01*
X9088095Y-34678571D01*
X9326190Y-34559523D01*
X10397619Y-35511904D02*
X10635714Y-35630952D01*
X11111904Y-35630952D01*
X11350000Y-35511904D01*
X11469047Y-35273809D01*
X11469047Y-35154761D01*
X11350000Y-34916666D01*
X11111904Y-34797619D01*
X10754761Y-34797619D01*
X10516666Y-34678571D01*
X10397619Y-34440476D01*
X10397619Y-34321428D01*
X10516666Y-34083333D01*
X10754761Y-33964285D01*
X11111904Y-33964285D01*
X11350000Y-34083333D01*
X14326190Y-34916666D02*
X15516666Y-34916666D01*
X14088095Y-35630952D02*
X14921428Y-33130952D01*
X15754761Y-35630952D01*
M02*
