%TF.GenerationSoftware,KiCad,Pcbnew,5.1.6-c6e7f7d~87~ubuntu18.04.1*%
%TF.CreationDate,2020-07-29T18:50:04-04:00*%
%TF.ProjectId,front_panel,66726f6e-745f-4706-916e-656c2e6b6963,rev?*%
%TF.SameCoordinates,Original*%
%TF.FileFunction,Legend,Bot*%
%TF.FilePolarity,Positive*%
%FSLAX46Y46*%
G04 Gerber Fmt 4.6, Leading zero omitted, Abs format (unit mm)*
G04 Created by KiCad (PCBNEW 5.1.6-c6e7f7d~87~ubuntu18.04.1) date 2020-07-29 18:50:04*
%MOMM*%
%LPD*%
G01*
G04 APERTURE LIST*
%ADD10C,0.150000*%
G04 APERTURE END LIST*
D10*
X30019047Y-1992380D02*
X30019047Y-2706666D01*
X30066666Y-2849523D01*
X30161904Y-2944761D01*
X30304761Y-2992380D01*
X30400000Y-2992380D01*
X29066666Y-2992380D02*
X29542857Y-2992380D01*
X29542857Y-1992380D01*
X28161904Y-2897142D02*
X28209523Y-2944761D01*
X28352380Y-2992380D01*
X28447619Y-2992380D01*
X28590476Y-2944761D01*
X28685714Y-2849523D01*
X28733333Y-2754285D01*
X28780952Y-2563809D01*
X28780952Y-2420952D01*
X28733333Y-2230476D01*
X28685714Y-2135238D01*
X28590476Y-2040000D01*
X28447619Y-1992380D01*
X28352380Y-1992380D01*
X28209523Y-2040000D01*
X28161904Y-2087619D01*
X27447619Y-1992380D02*
X27447619Y-2706666D01*
X27495238Y-2849523D01*
X27590476Y-2944761D01*
X27733333Y-2992380D01*
X27828571Y-2992380D01*
X26495238Y-2992380D02*
X26971428Y-2992380D01*
X26971428Y-1992380D01*
X25590476Y-2897142D02*
X25638095Y-2944761D01*
X25780952Y-2992380D01*
X25876190Y-2992380D01*
X26019047Y-2944761D01*
X26114285Y-2849523D01*
X26161904Y-2754285D01*
X26209523Y-2563809D01*
X26209523Y-2420952D01*
X26161904Y-2230476D01*
X26114285Y-2135238D01*
X26019047Y-2040000D01*
X25876190Y-1992380D01*
X25780952Y-1992380D01*
X25638095Y-2040000D01*
X25590476Y-2087619D01*
X24876190Y-1992380D02*
X24876190Y-2706666D01*
X24923809Y-2849523D01*
X25019047Y-2944761D01*
X25161904Y-2992380D01*
X25257142Y-2992380D01*
X23923809Y-2992380D02*
X24400000Y-2992380D01*
X24400000Y-1992380D01*
X23019047Y-2897142D02*
X23066666Y-2944761D01*
X23209523Y-2992380D01*
X23304761Y-2992380D01*
X23447619Y-2944761D01*
X23542857Y-2849523D01*
X23590476Y-2754285D01*
X23638095Y-2563809D01*
X23638095Y-2420952D01*
X23590476Y-2230476D01*
X23542857Y-2135238D01*
X23447619Y-2040000D01*
X23304761Y-1992380D01*
X23209523Y-1992380D01*
X23066666Y-2040000D01*
X23019047Y-2087619D01*
X22304761Y-1992380D02*
X22304761Y-2706666D01*
X22352380Y-2849523D01*
X22447619Y-2944761D01*
X22590476Y-2992380D01*
X22685714Y-2992380D01*
X21352380Y-2992380D02*
X21828571Y-2992380D01*
X21828571Y-1992380D01*
X20447619Y-2897142D02*
X20495238Y-2944761D01*
X20638095Y-2992380D01*
X20733333Y-2992380D01*
X20876190Y-2944761D01*
X20971428Y-2849523D01*
X21019047Y-2754285D01*
X21066666Y-2563809D01*
X21066666Y-2420952D01*
X21019047Y-2230476D01*
X20971428Y-2135238D01*
X20876190Y-2040000D01*
X20733333Y-1992380D01*
X20638095Y-1992380D01*
X20495238Y-2040000D01*
X20447619Y-2087619D01*
M02*
