%TF.GenerationSoftware,KiCad,Pcbnew,5.1.6-c6e7f7d~87~ubuntu18.04.1*%
%TF.CreationDate,2020-07-29T18:50:04-04:00*%
%TF.ProjectId,front_panel,66726f6e-745f-4706-916e-656c2e6b6963,rev?*%
%TF.SameCoordinates,Original*%
%TF.FileFunction,Copper,L1,Top*%
%TF.FilePolarity,Positive*%
%FSLAX46Y46*%
G04 Gerber Fmt 4.6, Leading zero omitted, Abs format (unit mm)*
G04 Created by KiCad (PCBNEW 5.1.6-c6e7f7d~87~ubuntu18.04.1) date 2020-07-29 18:50:04*
%MOMM*%
%LPD*%
G01*
G04 APERTURE LIST*
%TA.AperFunction,ComponentPad*%
%ADD10C,5.600000*%
%TD*%
%TA.AperFunction,Conductor*%
%ADD11C,0.254000*%
%TD*%
G04 APERTURE END LIST*
D10*
%TO.P,H4,1*%
%TO.N,GND*%
X43060000Y-125500000D03*
%TD*%
%TO.P,H3,1*%
%TO.N,GND*%
X43060000Y-3000000D03*
%TD*%
%TO.P,H2,1*%
%TO.N,GND*%
X7500000Y-125500000D03*
%TD*%
%TO.P,H1,1*%
%TO.N,GND*%
X7500000Y-3000000D03*
%TD*%
D11*
%TO.N,GND*%
G36*
X5083517Y-763125D02*
G01*
X4634823Y-1075308D01*
X4314388Y-1671259D01*
X4116374Y-2318273D01*
X4048390Y-2991484D01*
X4113051Y-3665023D01*
X4307870Y-4313006D01*
X4625361Y-4910530D01*
X4634823Y-4924692D01*
X5083519Y-5236876D01*
X7320395Y-3000000D01*
X7306253Y-2985858D01*
X7485858Y-2806253D01*
X7500000Y-2820395D01*
X7514143Y-2806253D01*
X7693748Y-2985858D01*
X7679605Y-3000000D01*
X9916481Y-5236876D01*
X10365177Y-4924692D01*
X10685612Y-4328741D01*
X10883626Y-3681727D01*
X10951610Y-3008516D01*
X10886949Y-2334977D01*
X10692130Y-1686994D01*
X10374639Y-1089470D01*
X10365177Y-1075308D01*
X9916483Y-763125D01*
X10019608Y-660000D01*
X40540392Y-660000D01*
X40643517Y-763125D01*
X40194823Y-1075308D01*
X39874388Y-1671259D01*
X39676374Y-2318273D01*
X39608390Y-2991484D01*
X39673051Y-3665023D01*
X39867870Y-4313006D01*
X40185361Y-4910530D01*
X40194823Y-4924692D01*
X40643519Y-5236876D01*
X42880395Y-3000000D01*
X42866253Y-2985858D01*
X43045858Y-2806253D01*
X43060000Y-2820395D01*
X43074143Y-2806253D01*
X43253748Y-2985858D01*
X43239605Y-3000000D01*
X45476481Y-5236876D01*
X45925177Y-4924692D01*
X46245612Y-4328741D01*
X46443626Y-3681727D01*
X46511610Y-3008516D01*
X46446949Y-2334977D01*
X46252130Y-1686994D01*
X45934639Y-1089470D01*
X45925177Y-1075308D01*
X45476483Y-763125D01*
X45579608Y-660000D01*
X49840000Y-660000D01*
X49840001Y-127840000D01*
X45579608Y-127840000D01*
X45476483Y-127736875D01*
X45925177Y-127424692D01*
X46245612Y-126828741D01*
X46443626Y-126181727D01*
X46511610Y-125508516D01*
X46446949Y-124834977D01*
X46252130Y-124186994D01*
X45934639Y-123589470D01*
X45925177Y-123575308D01*
X45476481Y-123263124D01*
X43239605Y-125500000D01*
X43253748Y-125514143D01*
X43074143Y-125693748D01*
X43060000Y-125679605D01*
X43045858Y-125693748D01*
X42866253Y-125514143D01*
X42880395Y-125500000D01*
X40643519Y-123263124D01*
X40194823Y-123575308D01*
X39874388Y-124171259D01*
X39676374Y-124818273D01*
X39608390Y-125491484D01*
X39673051Y-126165023D01*
X39867870Y-126813006D01*
X40185361Y-127410530D01*
X40194823Y-127424692D01*
X40643517Y-127736875D01*
X40540392Y-127840000D01*
X10019608Y-127840000D01*
X9916483Y-127736875D01*
X10365177Y-127424692D01*
X10685612Y-126828741D01*
X10883626Y-126181727D01*
X10951610Y-125508516D01*
X10886949Y-124834977D01*
X10692130Y-124186994D01*
X10374639Y-123589470D01*
X10365177Y-123575308D01*
X9916481Y-123263124D01*
X7679605Y-125500000D01*
X7693748Y-125514143D01*
X7514143Y-125693748D01*
X7500000Y-125679605D01*
X7485858Y-125693748D01*
X7306253Y-125514143D01*
X7320395Y-125500000D01*
X5083519Y-123263124D01*
X4634823Y-123575308D01*
X4314388Y-124171259D01*
X4116374Y-124818273D01*
X4048390Y-125491484D01*
X4113051Y-126165023D01*
X4307870Y-126813006D01*
X4625361Y-127410530D01*
X4634823Y-127424692D01*
X5083517Y-127736875D01*
X4980392Y-127840000D01*
X660000Y-127840000D01*
X660000Y-123083519D01*
X5263124Y-123083519D01*
X7500000Y-125320395D01*
X9736876Y-123083519D01*
X40823124Y-123083519D01*
X43060000Y-125320395D01*
X45296876Y-123083519D01*
X44984692Y-122634823D01*
X44388741Y-122314388D01*
X43741727Y-122116374D01*
X43068516Y-122048390D01*
X42394977Y-122113051D01*
X41746994Y-122307870D01*
X41149470Y-122625361D01*
X41135308Y-122634823D01*
X40823124Y-123083519D01*
X9736876Y-123083519D01*
X9424692Y-122634823D01*
X8828741Y-122314388D01*
X8181727Y-122116374D01*
X7508516Y-122048390D01*
X6834977Y-122113051D01*
X6186994Y-122307870D01*
X5589470Y-122625361D01*
X5575308Y-122634823D01*
X5263124Y-123083519D01*
X660000Y-123083519D01*
X660000Y-99669600D01*
X5384800Y-99669600D01*
X5384800Y-108864400D01*
X5387240Y-108889176D01*
X5394467Y-108913001D01*
X5406203Y-108934957D01*
X5421997Y-108954203D01*
X5441243Y-108969997D01*
X5463199Y-108981733D01*
X5487024Y-108988960D01*
X5511800Y-108991400D01*
X14706600Y-108991400D01*
X14731376Y-108988960D01*
X14755201Y-108981733D01*
X14777157Y-108969997D01*
X14796403Y-108954203D01*
X14812197Y-108934957D01*
X14823933Y-108913001D01*
X14831160Y-108889176D01*
X14833600Y-108864400D01*
X14833600Y-99680000D01*
X35763000Y-99680000D01*
X35763000Y-108880000D01*
X35765440Y-108904776D01*
X35772667Y-108928601D01*
X35784403Y-108950557D01*
X35800197Y-108969803D01*
X35819443Y-108985597D01*
X35841399Y-108997333D01*
X35865224Y-109004560D01*
X35890000Y-109007000D01*
X45090000Y-109007000D01*
X45114776Y-109004560D01*
X45138601Y-108997333D01*
X45160557Y-108985597D01*
X45179803Y-108969803D01*
X45195597Y-108950557D01*
X45207333Y-108928601D01*
X45214560Y-108904776D01*
X45217000Y-108880000D01*
X45217000Y-99680000D01*
X45214560Y-99655224D01*
X45207333Y-99631399D01*
X45195597Y-99609443D01*
X45179803Y-99590197D01*
X45160557Y-99574403D01*
X45138601Y-99562667D01*
X45114776Y-99555440D01*
X45090000Y-99553000D01*
X35890000Y-99553000D01*
X35865224Y-99555440D01*
X35841399Y-99562667D01*
X35819443Y-99574403D01*
X35800197Y-99590197D01*
X35784403Y-99609443D01*
X35772667Y-99631399D01*
X35765440Y-99655224D01*
X35763000Y-99680000D01*
X14833600Y-99680000D01*
X14833600Y-99669600D01*
X14831160Y-99644824D01*
X14823933Y-99620999D01*
X14812197Y-99599043D01*
X14796403Y-99579797D01*
X14777157Y-99564003D01*
X14755201Y-99552267D01*
X14731376Y-99545040D01*
X14706600Y-99542600D01*
X5511800Y-99542600D01*
X5487024Y-99545040D01*
X5463199Y-99552267D01*
X5441243Y-99564003D01*
X5421997Y-99579797D01*
X5406203Y-99599043D01*
X5394467Y-99620999D01*
X5387240Y-99644824D01*
X5384800Y-99669600D01*
X660000Y-99669600D01*
X660000Y-91209495D01*
X6338202Y-91209495D01*
X6338202Y-91950505D01*
X6482766Y-92677276D01*
X6766338Y-93361880D01*
X7178020Y-93978007D01*
X7701993Y-94501980D01*
X8318120Y-94913662D01*
X9002724Y-95197234D01*
X9729495Y-95341798D01*
X10470505Y-95341798D01*
X11197276Y-95197234D01*
X11881880Y-94913662D01*
X12498007Y-94501980D01*
X13021980Y-93978007D01*
X13433662Y-93361880D01*
X13717234Y-92677276D01*
X13861798Y-91950505D01*
X13861798Y-91214396D01*
X36777961Y-91214396D01*
X36777961Y-91945604D01*
X36920613Y-92662762D01*
X37200434Y-93338310D01*
X37606671Y-93946287D01*
X38123713Y-94463329D01*
X38731690Y-94869566D01*
X39407238Y-95149387D01*
X40124396Y-95292039D01*
X40855604Y-95292039D01*
X41572762Y-95149387D01*
X42248310Y-94869566D01*
X42856287Y-94463329D01*
X43373329Y-93946287D01*
X43779566Y-93338310D01*
X44059387Y-92662762D01*
X44202039Y-91945604D01*
X44202039Y-91214396D01*
X44059387Y-90497238D01*
X43779566Y-89821690D01*
X43373329Y-89213713D01*
X42856287Y-88696671D01*
X42248310Y-88290434D01*
X41572762Y-88010613D01*
X40855604Y-87867961D01*
X40124396Y-87867961D01*
X39407238Y-88010613D01*
X38731690Y-88290434D01*
X38123713Y-88696671D01*
X37606671Y-89213713D01*
X37200434Y-89821690D01*
X36920613Y-90497238D01*
X36777961Y-91214396D01*
X13861798Y-91214396D01*
X13861798Y-91209495D01*
X13717234Y-90482724D01*
X13433662Y-89798120D01*
X13021980Y-89181993D01*
X12498007Y-88658020D01*
X11881880Y-88246338D01*
X11197276Y-87962766D01*
X10470505Y-87818202D01*
X9729495Y-87818202D01*
X9002724Y-87962766D01*
X8318120Y-88246338D01*
X7701993Y-88658020D01*
X7178020Y-89181993D01*
X6766338Y-89798120D01*
X6482766Y-90482724D01*
X6338202Y-91209495D01*
X660000Y-91209495D01*
X660000Y-78514396D01*
X6387961Y-78514396D01*
X6387961Y-79245604D01*
X6530613Y-79962762D01*
X6810434Y-80638310D01*
X7216671Y-81246287D01*
X7733713Y-81763329D01*
X8341690Y-82169566D01*
X9017238Y-82449387D01*
X9734396Y-82592039D01*
X10465604Y-82592039D01*
X11182762Y-82449387D01*
X11858310Y-82169566D01*
X12466287Y-81763329D01*
X12983329Y-81246287D01*
X13389566Y-80638310D01*
X13669387Y-79962762D01*
X13812039Y-79245604D01*
X13812039Y-78514396D01*
X36777961Y-78514396D01*
X36777961Y-79245604D01*
X36920613Y-79962762D01*
X37200434Y-80638310D01*
X37606671Y-81246287D01*
X38123713Y-81763329D01*
X38731690Y-82169566D01*
X39407238Y-82449387D01*
X40124396Y-82592039D01*
X40855604Y-82592039D01*
X41572762Y-82449387D01*
X42248310Y-82169566D01*
X42856287Y-81763329D01*
X43373329Y-81246287D01*
X43779566Y-80638310D01*
X44059387Y-79962762D01*
X44202039Y-79245604D01*
X44202039Y-78514396D01*
X44059387Y-77797238D01*
X43779566Y-77121690D01*
X43373329Y-76513713D01*
X42856287Y-75996671D01*
X42248310Y-75590434D01*
X41572762Y-75310613D01*
X40855604Y-75167961D01*
X40124396Y-75167961D01*
X39407238Y-75310613D01*
X38731690Y-75590434D01*
X38123713Y-75996671D01*
X37606671Y-76513713D01*
X37200434Y-77121690D01*
X36920613Y-77797238D01*
X36777961Y-78514396D01*
X13812039Y-78514396D01*
X13669387Y-77797238D01*
X13389566Y-77121690D01*
X12983329Y-76513713D01*
X12466287Y-75996671D01*
X11858310Y-75590434D01*
X11182762Y-75310613D01*
X10465604Y-75167961D01*
X9734396Y-75167961D01*
X9017238Y-75310613D01*
X8341690Y-75590434D01*
X7733713Y-75996671D01*
X7216671Y-76513713D01*
X6810434Y-77121690D01*
X6530613Y-77797238D01*
X6387961Y-78514396D01*
X660000Y-78514396D01*
X660000Y-50525387D01*
X5890369Y-50525387D01*
X5890369Y-51354613D01*
X6052142Y-52167904D01*
X6369473Y-52934008D01*
X6830166Y-53623484D01*
X7416516Y-54209834D01*
X8105992Y-54670527D01*
X8872096Y-54987858D01*
X9685387Y-55149631D01*
X10514613Y-55149631D01*
X11327904Y-54987858D01*
X12094008Y-54670527D01*
X12783484Y-54209834D01*
X13369834Y-53623484D01*
X13830527Y-52934008D01*
X14147858Y-52167904D01*
X14309631Y-51354613D01*
X14309631Y-50525387D01*
X36280369Y-50525387D01*
X36280369Y-51354613D01*
X36442142Y-52167904D01*
X36759473Y-52934008D01*
X37220166Y-53623484D01*
X37806516Y-54209834D01*
X38495992Y-54670527D01*
X39262096Y-54987858D01*
X40075387Y-55149631D01*
X40904613Y-55149631D01*
X41717904Y-54987858D01*
X42484008Y-54670527D01*
X43173484Y-54209834D01*
X43759834Y-53623484D01*
X44220527Y-52934008D01*
X44537858Y-52167904D01*
X44699631Y-51354613D01*
X44699631Y-50525387D01*
X44537858Y-49712096D01*
X44220527Y-48945992D01*
X43759834Y-48256516D01*
X43173484Y-47670166D01*
X42484008Y-47209473D01*
X41717904Y-46892142D01*
X40904613Y-46730369D01*
X40075387Y-46730369D01*
X39262096Y-46892142D01*
X38495992Y-47209473D01*
X37806516Y-47670166D01*
X37220166Y-48256516D01*
X36759473Y-48945992D01*
X36442142Y-49712096D01*
X36280369Y-50525387D01*
X14309631Y-50525387D01*
X14147858Y-49712096D01*
X13830527Y-48945992D01*
X13369834Y-48256516D01*
X12783484Y-47670166D01*
X12094008Y-47209473D01*
X11327904Y-46892142D01*
X10514613Y-46730369D01*
X9685387Y-46730369D01*
X8872096Y-46892142D01*
X8105992Y-47209473D01*
X7416516Y-47670166D01*
X6830166Y-48256516D01*
X6369473Y-48945992D01*
X6052142Y-49712096D01*
X5890369Y-50525387D01*
X660000Y-50525387D01*
X660000Y-22585387D01*
X5890369Y-22585387D01*
X5890369Y-23414613D01*
X6052142Y-24227904D01*
X6369473Y-24994008D01*
X6830166Y-25683484D01*
X7416516Y-26269834D01*
X8105992Y-26730527D01*
X8872096Y-27047858D01*
X9685387Y-27209631D01*
X10514613Y-27209631D01*
X11327904Y-27047858D01*
X12094008Y-26730527D01*
X12783484Y-26269834D01*
X13369834Y-25683484D01*
X13830527Y-24994008D01*
X14147858Y-24227904D01*
X14309631Y-23414613D01*
X14309631Y-22585387D01*
X36280369Y-22585387D01*
X36280369Y-23414613D01*
X36442142Y-24227904D01*
X36759473Y-24994008D01*
X37220166Y-25683484D01*
X37806516Y-26269834D01*
X38495992Y-26730527D01*
X39262096Y-27047858D01*
X40075387Y-27209631D01*
X40904613Y-27209631D01*
X41717904Y-27047858D01*
X42484008Y-26730527D01*
X43173484Y-26269834D01*
X43759834Y-25683484D01*
X44220527Y-24994008D01*
X44537858Y-24227904D01*
X44699631Y-23414613D01*
X44699631Y-22585387D01*
X44537858Y-21772096D01*
X44220527Y-21005992D01*
X43759834Y-20316516D01*
X43173484Y-19730166D01*
X42484008Y-19269473D01*
X41717904Y-18952142D01*
X40904613Y-18790369D01*
X40075387Y-18790369D01*
X39262096Y-18952142D01*
X38495992Y-19269473D01*
X37806516Y-19730166D01*
X37220166Y-20316516D01*
X36759473Y-21005992D01*
X36442142Y-21772096D01*
X36280369Y-22585387D01*
X14309631Y-22585387D01*
X14147858Y-21772096D01*
X13830527Y-21005992D01*
X13369834Y-20316516D01*
X12783484Y-19730166D01*
X12094008Y-19269473D01*
X11327904Y-18952142D01*
X10514613Y-18790369D01*
X9685387Y-18790369D01*
X8872096Y-18952142D01*
X8105992Y-19269473D01*
X7416516Y-19730166D01*
X6830166Y-20316516D01*
X6369473Y-21005992D01*
X6052142Y-21772096D01*
X5890369Y-22585387D01*
X660000Y-22585387D01*
X660000Y-5416481D01*
X5263124Y-5416481D01*
X5575308Y-5865177D01*
X6171259Y-6185612D01*
X6818273Y-6383626D01*
X7491484Y-6451610D01*
X8165023Y-6386949D01*
X8813006Y-6192130D01*
X9410530Y-5874639D01*
X9424692Y-5865177D01*
X9736876Y-5416481D01*
X40823124Y-5416481D01*
X41135308Y-5865177D01*
X41731259Y-6185612D01*
X42378273Y-6383626D01*
X43051484Y-6451610D01*
X43725023Y-6386949D01*
X44373006Y-6192130D01*
X44970530Y-5874639D01*
X44984692Y-5865177D01*
X45296876Y-5416481D01*
X43060000Y-3179605D01*
X40823124Y-5416481D01*
X9736876Y-5416481D01*
X7500000Y-3179605D01*
X5263124Y-5416481D01*
X660000Y-5416481D01*
X660000Y-660000D01*
X4980392Y-660000D01*
X5083517Y-763125D01*
G37*
X5083517Y-763125D02*
X4634823Y-1075308D01*
X4314388Y-1671259D01*
X4116374Y-2318273D01*
X4048390Y-2991484D01*
X4113051Y-3665023D01*
X4307870Y-4313006D01*
X4625361Y-4910530D01*
X4634823Y-4924692D01*
X5083519Y-5236876D01*
X7320395Y-3000000D01*
X7306253Y-2985858D01*
X7485858Y-2806253D01*
X7500000Y-2820395D01*
X7514143Y-2806253D01*
X7693748Y-2985858D01*
X7679605Y-3000000D01*
X9916481Y-5236876D01*
X10365177Y-4924692D01*
X10685612Y-4328741D01*
X10883626Y-3681727D01*
X10951610Y-3008516D01*
X10886949Y-2334977D01*
X10692130Y-1686994D01*
X10374639Y-1089470D01*
X10365177Y-1075308D01*
X9916483Y-763125D01*
X10019608Y-660000D01*
X40540392Y-660000D01*
X40643517Y-763125D01*
X40194823Y-1075308D01*
X39874388Y-1671259D01*
X39676374Y-2318273D01*
X39608390Y-2991484D01*
X39673051Y-3665023D01*
X39867870Y-4313006D01*
X40185361Y-4910530D01*
X40194823Y-4924692D01*
X40643519Y-5236876D01*
X42880395Y-3000000D01*
X42866253Y-2985858D01*
X43045858Y-2806253D01*
X43060000Y-2820395D01*
X43074143Y-2806253D01*
X43253748Y-2985858D01*
X43239605Y-3000000D01*
X45476481Y-5236876D01*
X45925177Y-4924692D01*
X46245612Y-4328741D01*
X46443626Y-3681727D01*
X46511610Y-3008516D01*
X46446949Y-2334977D01*
X46252130Y-1686994D01*
X45934639Y-1089470D01*
X45925177Y-1075308D01*
X45476483Y-763125D01*
X45579608Y-660000D01*
X49840000Y-660000D01*
X49840001Y-127840000D01*
X45579608Y-127840000D01*
X45476483Y-127736875D01*
X45925177Y-127424692D01*
X46245612Y-126828741D01*
X46443626Y-126181727D01*
X46511610Y-125508516D01*
X46446949Y-124834977D01*
X46252130Y-124186994D01*
X45934639Y-123589470D01*
X45925177Y-123575308D01*
X45476481Y-123263124D01*
X43239605Y-125500000D01*
X43253748Y-125514143D01*
X43074143Y-125693748D01*
X43060000Y-125679605D01*
X43045858Y-125693748D01*
X42866253Y-125514143D01*
X42880395Y-125500000D01*
X40643519Y-123263124D01*
X40194823Y-123575308D01*
X39874388Y-124171259D01*
X39676374Y-124818273D01*
X39608390Y-125491484D01*
X39673051Y-126165023D01*
X39867870Y-126813006D01*
X40185361Y-127410530D01*
X40194823Y-127424692D01*
X40643517Y-127736875D01*
X40540392Y-127840000D01*
X10019608Y-127840000D01*
X9916483Y-127736875D01*
X10365177Y-127424692D01*
X10685612Y-126828741D01*
X10883626Y-126181727D01*
X10951610Y-125508516D01*
X10886949Y-124834977D01*
X10692130Y-124186994D01*
X10374639Y-123589470D01*
X10365177Y-123575308D01*
X9916481Y-123263124D01*
X7679605Y-125500000D01*
X7693748Y-125514143D01*
X7514143Y-125693748D01*
X7500000Y-125679605D01*
X7485858Y-125693748D01*
X7306253Y-125514143D01*
X7320395Y-125500000D01*
X5083519Y-123263124D01*
X4634823Y-123575308D01*
X4314388Y-124171259D01*
X4116374Y-124818273D01*
X4048390Y-125491484D01*
X4113051Y-126165023D01*
X4307870Y-126813006D01*
X4625361Y-127410530D01*
X4634823Y-127424692D01*
X5083517Y-127736875D01*
X4980392Y-127840000D01*
X660000Y-127840000D01*
X660000Y-123083519D01*
X5263124Y-123083519D01*
X7500000Y-125320395D01*
X9736876Y-123083519D01*
X40823124Y-123083519D01*
X43060000Y-125320395D01*
X45296876Y-123083519D01*
X44984692Y-122634823D01*
X44388741Y-122314388D01*
X43741727Y-122116374D01*
X43068516Y-122048390D01*
X42394977Y-122113051D01*
X41746994Y-122307870D01*
X41149470Y-122625361D01*
X41135308Y-122634823D01*
X40823124Y-123083519D01*
X9736876Y-123083519D01*
X9424692Y-122634823D01*
X8828741Y-122314388D01*
X8181727Y-122116374D01*
X7508516Y-122048390D01*
X6834977Y-122113051D01*
X6186994Y-122307870D01*
X5589470Y-122625361D01*
X5575308Y-122634823D01*
X5263124Y-123083519D01*
X660000Y-123083519D01*
X660000Y-99669600D01*
X5384800Y-99669600D01*
X5384800Y-108864400D01*
X5387240Y-108889176D01*
X5394467Y-108913001D01*
X5406203Y-108934957D01*
X5421997Y-108954203D01*
X5441243Y-108969997D01*
X5463199Y-108981733D01*
X5487024Y-108988960D01*
X5511800Y-108991400D01*
X14706600Y-108991400D01*
X14731376Y-108988960D01*
X14755201Y-108981733D01*
X14777157Y-108969997D01*
X14796403Y-108954203D01*
X14812197Y-108934957D01*
X14823933Y-108913001D01*
X14831160Y-108889176D01*
X14833600Y-108864400D01*
X14833600Y-99680000D01*
X35763000Y-99680000D01*
X35763000Y-108880000D01*
X35765440Y-108904776D01*
X35772667Y-108928601D01*
X35784403Y-108950557D01*
X35800197Y-108969803D01*
X35819443Y-108985597D01*
X35841399Y-108997333D01*
X35865224Y-109004560D01*
X35890000Y-109007000D01*
X45090000Y-109007000D01*
X45114776Y-109004560D01*
X45138601Y-108997333D01*
X45160557Y-108985597D01*
X45179803Y-108969803D01*
X45195597Y-108950557D01*
X45207333Y-108928601D01*
X45214560Y-108904776D01*
X45217000Y-108880000D01*
X45217000Y-99680000D01*
X45214560Y-99655224D01*
X45207333Y-99631399D01*
X45195597Y-99609443D01*
X45179803Y-99590197D01*
X45160557Y-99574403D01*
X45138601Y-99562667D01*
X45114776Y-99555440D01*
X45090000Y-99553000D01*
X35890000Y-99553000D01*
X35865224Y-99555440D01*
X35841399Y-99562667D01*
X35819443Y-99574403D01*
X35800197Y-99590197D01*
X35784403Y-99609443D01*
X35772667Y-99631399D01*
X35765440Y-99655224D01*
X35763000Y-99680000D01*
X14833600Y-99680000D01*
X14833600Y-99669600D01*
X14831160Y-99644824D01*
X14823933Y-99620999D01*
X14812197Y-99599043D01*
X14796403Y-99579797D01*
X14777157Y-99564003D01*
X14755201Y-99552267D01*
X14731376Y-99545040D01*
X14706600Y-99542600D01*
X5511800Y-99542600D01*
X5487024Y-99545040D01*
X5463199Y-99552267D01*
X5441243Y-99564003D01*
X5421997Y-99579797D01*
X5406203Y-99599043D01*
X5394467Y-99620999D01*
X5387240Y-99644824D01*
X5384800Y-99669600D01*
X660000Y-99669600D01*
X660000Y-91209495D01*
X6338202Y-91209495D01*
X6338202Y-91950505D01*
X6482766Y-92677276D01*
X6766338Y-93361880D01*
X7178020Y-93978007D01*
X7701993Y-94501980D01*
X8318120Y-94913662D01*
X9002724Y-95197234D01*
X9729495Y-95341798D01*
X10470505Y-95341798D01*
X11197276Y-95197234D01*
X11881880Y-94913662D01*
X12498007Y-94501980D01*
X13021980Y-93978007D01*
X13433662Y-93361880D01*
X13717234Y-92677276D01*
X13861798Y-91950505D01*
X13861798Y-91214396D01*
X36777961Y-91214396D01*
X36777961Y-91945604D01*
X36920613Y-92662762D01*
X37200434Y-93338310D01*
X37606671Y-93946287D01*
X38123713Y-94463329D01*
X38731690Y-94869566D01*
X39407238Y-95149387D01*
X40124396Y-95292039D01*
X40855604Y-95292039D01*
X41572762Y-95149387D01*
X42248310Y-94869566D01*
X42856287Y-94463329D01*
X43373329Y-93946287D01*
X43779566Y-93338310D01*
X44059387Y-92662762D01*
X44202039Y-91945604D01*
X44202039Y-91214396D01*
X44059387Y-90497238D01*
X43779566Y-89821690D01*
X43373329Y-89213713D01*
X42856287Y-88696671D01*
X42248310Y-88290434D01*
X41572762Y-88010613D01*
X40855604Y-87867961D01*
X40124396Y-87867961D01*
X39407238Y-88010613D01*
X38731690Y-88290434D01*
X38123713Y-88696671D01*
X37606671Y-89213713D01*
X37200434Y-89821690D01*
X36920613Y-90497238D01*
X36777961Y-91214396D01*
X13861798Y-91214396D01*
X13861798Y-91209495D01*
X13717234Y-90482724D01*
X13433662Y-89798120D01*
X13021980Y-89181993D01*
X12498007Y-88658020D01*
X11881880Y-88246338D01*
X11197276Y-87962766D01*
X10470505Y-87818202D01*
X9729495Y-87818202D01*
X9002724Y-87962766D01*
X8318120Y-88246338D01*
X7701993Y-88658020D01*
X7178020Y-89181993D01*
X6766338Y-89798120D01*
X6482766Y-90482724D01*
X6338202Y-91209495D01*
X660000Y-91209495D01*
X660000Y-78514396D01*
X6387961Y-78514396D01*
X6387961Y-79245604D01*
X6530613Y-79962762D01*
X6810434Y-80638310D01*
X7216671Y-81246287D01*
X7733713Y-81763329D01*
X8341690Y-82169566D01*
X9017238Y-82449387D01*
X9734396Y-82592039D01*
X10465604Y-82592039D01*
X11182762Y-82449387D01*
X11858310Y-82169566D01*
X12466287Y-81763329D01*
X12983329Y-81246287D01*
X13389566Y-80638310D01*
X13669387Y-79962762D01*
X13812039Y-79245604D01*
X13812039Y-78514396D01*
X36777961Y-78514396D01*
X36777961Y-79245604D01*
X36920613Y-79962762D01*
X37200434Y-80638310D01*
X37606671Y-81246287D01*
X38123713Y-81763329D01*
X38731690Y-82169566D01*
X39407238Y-82449387D01*
X40124396Y-82592039D01*
X40855604Y-82592039D01*
X41572762Y-82449387D01*
X42248310Y-82169566D01*
X42856287Y-81763329D01*
X43373329Y-81246287D01*
X43779566Y-80638310D01*
X44059387Y-79962762D01*
X44202039Y-79245604D01*
X44202039Y-78514396D01*
X44059387Y-77797238D01*
X43779566Y-77121690D01*
X43373329Y-76513713D01*
X42856287Y-75996671D01*
X42248310Y-75590434D01*
X41572762Y-75310613D01*
X40855604Y-75167961D01*
X40124396Y-75167961D01*
X39407238Y-75310613D01*
X38731690Y-75590434D01*
X38123713Y-75996671D01*
X37606671Y-76513713D01*
X37200434Y-77121690D01*
X36920613Y-77797238D01*
X36777961Y-78514396D01*
X13812039Y-78514396D01*
X13669387Y-77797238D01*
X13389566Y-77121690D01*
X12983329Y-76513713D01*
X12466287Y-75996671D01*
X11858310Y-75590434D01*
X11182762Y-75310613D01*
X10465604Y-75167961D01*
X9734396Y-75167961D01*
X9017238Y-75310613D01*
X8341690Y-75590434D01*
X7733713Y-75996671D01*
X7216671Y-76513713D01*
X6810434Y-77121690D01*
X6530613Y-77797238D01*
X6387961Y-78514396D01*
X660000Y-78514396D01*
X660000Y-50525387D01*
X5890369Y-50525387D01*
X5890369Y-51354613D01*
X6052142Y-52167904D01*
X6369473Y-52934008D01*
X6830166Y-53623484D01*
X7416516Y-54209834D01*
X8105992Y-54670527D01*
X8872096Y-54987858D01*
X9685387Y-55149631D01*
X10514613Y-55149631D01*
X11327904Y-54987858D01*
X12094008Y-54670527D01*
X12783484Y-54209834D01*
X13369834Y-53623484D01*
X13830527Y-52934008D01*
X14147858Y-52167904D01*
X14309631Y-51354613D01*
X14309631Y-50525387D01*
X36280369Y-50525387D01*
X36280369Y-51354613D01*
X36442142Y-52167904D01*
X36759473Y-52934008D01*
X37220166Y-53623484D01*
X37806516Y-54209834D01*
X38495992Y-54670527D01*
X39262096Y-54987858D01*
X40075387Y-55149631D01*
X40904613Y-55149631D01*
X41717904Y-54987858D01*
X42484008Y-54670527D01*
X43173484Y-54209834D01*
X43759834Y-53623484D01*
X44220527Y-52934008D01*
X44537858Y-52167904D01*
X44699631Y-51354613D01*
X44699631Y-50525387D01*
X44537858Y-49712096D01*
X44220527Y-48945992D01*
X43759834Y-48256516D01*
X43173484Y-47670166D01*
X42484008Y-47209473D01*
X41717904Y-46892142D01*
X40904613Y-46730369D01*
X40075387Y-46730369D01*
X39262096Y-46892142D01*
X38495992Y-47209473D01*
X37806516Y-47670166D01*
X37220166Y-48256516D01*
X36759473Y-48945992D01*
X36442142Y-49712096D01*
X36280369Y-50525387D01*
X14309631Y-50525387D01*
X14147858Y-49712096D01*
X13830527Y-48945992D01*
X13369834Y-48256516D01*
X12783484Y-47670166D01*
X12094008Y-47209473D01*
X11327904Y-46892142D01*
X10514613Y-46730369D01*
X9685387Y-46730369D01*
X8872096Y-46892142D01*
X8105992Y-47209473D01*
X7416516Y-47670166D01*
X6830166Y-48256516D01*
X6369473Y-48945992D01*
X6052142Y-49712096D01*
X5890369Y-50525387D01*
X660000Y-50525387D01*
X660000Y-22585387D01*
X5890369Y-22585387D01*
X5890369Y-23414613D01*
X6052142Y-24227904D01*
X6369473Y-24994008D01*
X6830166Y-25683484D01*
X7416516Y-26269834D01*
X8105992Y-26730527D01*
X8872096Y-27047858D01*
X9685387Y-27209631D01*
X10514613Y-27209631D01*
X11327904Y-27047858D01*
X12094008Y-26730527D01*
X12783484Y-26269834D01*
X13369834Y-25683484D01*
X13830527Y-24994008D01*
X14147858Y-24227904D01*
X14309631Y-23414613D01*
X14309631Y-22585387D01*
X36280369Y-22585387D01*
X36280369Y-23414613D01*
X36442142Y-24227904D01*
X36759473Y-24994008D01*
X37220166Y-25683484D01*
X37806516Y-26269834D01*
X38495992Y-26730527D01*
X39262096Y-27047858D01*
X40075387Y-27209631D01*
X40904613Y-27209631D01*
X41717904Y-27047858D01*
X42484008Y-26730527D01*
X43173484Y-26269834D01*
X43759834Y-25683484D01*
X44220527Y-24994008D01*
X44537858Y-24227904D01*
X44699631Y-23414613D01*
X44699631Y-22585387D01*
X44537858Y-21772096D01*
X44220527Y-21005992D01*
X43759834Y-20316516D01*
X43173484Y-19730166D01*
X42484008Y-19269473D01*
X41717904Y-18952142D01*
X40904613Y-18790369D01*
X40075387Y-18790369D01*
X39262096Y-18952142D01*
X38495992Y-19269473D01*
X37806516Y-19730166D01*
X37220166Y-20316516D01*
X36759473Y-21005992D01*
X36442142Y-21772096D01*
X36280369Y-22585387D01*
X14309631Y-22585387D01*
X14147858Y-21772096D01*
X13830527Y-21005992D01*
X13369834Y-20316516D01*
X12783484Y-19730166D01*
X12094008Y-19269473D01*
X11327904Y-18952142D01*
X10514613Y-18790369D01*
X9685387Y-18790369D01*
X8872096Y-18952142D01*
X8105992Y-19269473D01*
X7416516Y-19730166D01*
X6830166Y-20316516D01*
X6369473Y-21005992D01*
X6052142Y-21772096D01*
X5890369Y-22585387D01*
X660000Y-22585387D01*
X660000Y-5416481D01*
X5263124Y-5416481D01*
X5575308Y-5865177D01*
X6171259Y-6185612D01*
X6818273Y-6383626D01*
X7491484Y-6451610D01*
X8165023Y-6386949D01*
X8813006Y-6192130D01*
X9410530Y-5874639D01*
X9424692Y-5865177D01*
X9736876Y-5416481D01*
X40823124Y-5416481D01*
X41135308Y-5865177D01*
X41731259Y-6185612D01*
X42378273Y-6383626D01*
X43051484Y-6451610D01*
X43725023Y-6386949D01*
X44373006Y-6192130D01*
X44970530Y-5874639D01*
X44984692Y-5865177D01*
X45296876Y-5416481D01*
X43060000Y-3179605D01*
X40823124Y-5416481D01*
X9736876Y-5416481D01*
X7500000Y-3179605D01*
X5263124Y-5416481D01*
X660000Y-5416481D01*
X660000Y-660000D01*
X4980392Y-660000D01*
X5083517Y-763125D01*
%TD*%
M02*
